<!-- Generated by IcoMoon.io -->
<svg version="1.1" xmlns="http://www.w3.org/2000/svg" width="100" height="100" viewBox="0 0 100 100">
<title>coins</title>
<path fill="#f7f7f7" d="M89.063 71.875h-38.269c1.122-1.934 1.981-4.031 2.55-6.25h35.719c1.728 0 3.125 1.397 3.125 3.125 0 1.725-1.397 3.125-3.125 3.125zM89.063 62.5h-35.113c0.128-1.025 0.216-2.066 0.216-3.125 0-1.063-0.087-2.1-0.216-3.125h35.113c1.728 0 3.125 1.397 3.125 3.125 0 1.725-1.397 3.125-3.125 3.125zM89.063 53.125h-35.719c-0.572-2.219-1.428-4.316-2.55-6.25h38.269c1.728 0 3.125 1.397 3.125 3.125 0 1.725-1.397 3.125-3.125 3.125zM89.063 43.75h-40.4c-2.031-2.534-4.541-4.666-7.403-6.25h47.803c1.728 0 3.125 1.397 3.125 3.125 0 1.725-1.397 3.125-3.125 3.125zM89.063 34.375h-50c-1.728 0-3.125-1.4-3.125-3.125 0-1.728 1.397-3.125 3.125-3.125h50c1.728 0 3.125 1.397 3.125 3.125 0 1.725-1.397 3.125-3.125 3.125zM89.063 25h-50c-1.728 0-3.125-1.4-3.125-3.125 0-1.728 1.397-3.125 3.125-3.125h50c1.728 0 3.125 1.397 3.125 3.125 0 1.725-1.397 3.125-3.125 3.125zM51.563 59.375c0 12.081-9.797 21.875-21.875 21.875-12.081 0-21.875-9.794-21.875-21.875s9.794-21.875 21.875-21.875c12.078 0 21.875 9.794 21.875 21.875zM37.431 61.753c-0.316-0.747-0.722-1.397-1.231-1.95s-1.087-1.028-1.737-1.425c-0.65-0.397-1.313-0.75-1.991-1.066-0.678-0.313-1.341-0.606-1.991-0.887-0.65-0.278-1.234-0.578-1.747-0.897-0.516-0.319-0.925-0.684-1.231-1.094s-0.459-0.894-0.459-1.456c0-0.375 0.069-0.731 0.203-1.069 0.138-0.334 0.344-0.625 0.625-0.866 0.278-0.237 0.628-0.428 1.044-0.562 0.416-0.138 0.906-0.203 1.466-0.203 0.716 0 1.372 0.084 1.972 0.259 0.597 0.178 1.125 0.369 1.581 0.584 0.456 0.213 0.841 0.409 1.153 0.591s0.541 0.269 0.684 0.269 0.256-0.038 0.341-0.116c0.081-0.078 0.15-0.2 0.194-0.372 0.047-0.169 0.075-0.384 0.097-0.644 0.019-0.262 0.028-0.584 0.028-0.962 0-0.337-0.006-0.622-0.019-0.847-0.012-0.228-0.038-0.419-0.066-0.569-0.034-0.15-0.072-0.272-0.116-0.362-0.050-0.091-0.134-0.2-0.266-0.328-0.131-0.131-0.397-0.294-0.8-0.484-0.403-0.194-0.866-0.369-1.384-0.522-0.522-0.156-1.081-0.278-1.678-0.369-0.122-0.019-0.247-0.012-0.369-0.028v-3.231h-3.075v3.231c-0.566 0.075-1.113 0.188-1.644 0.341-1.034 0.3-1.931 0.75-2.694 1.356s-1.369 1.369-1.816 2.281c-0.45 0.919-0.672 1.981-0.672 3.191 0 1.053 0.156 1.959 0.466 2.712 0.312 0.753 0.719 1.409 1.222 1.962s1.069 1.025 1.706 1.422c0.638 0.4 1.297 0.753 1.972 1.066 0.678 0.313 1.334 0.606 1.972 0.887s1.206 0.581 1.706 0.897c0.503 0.322 0.909 0.684 1.222 1.094 0.313 0.413 0.469 0.903 0.469 1.475 0 0.497-0.091 0.947-0.272 1.353-0.184 0.403-0.447 0.741-0.791 1.016s-0.762 0.484-1.256 0.634c-0.497 0.15-1.053 0.225-1.681 0.225-0.95 0-1.787-0.106-2.509-0.322s-1.344-0.453-1.866-0.716c-0.522-0.259-0.947-0.494-1.278-0.713-0.331-0.213-0.587-0.322-0.772-0.322-0.131 0-0.247 0.037-0.341 0.106-0.1 0.072-0.178 0.194-0.234 0.363-0.059 0.172-0.1 0.391-0.128 0.666s-0.041 0.613-0.041 1.016c0 0.6 0.037 1.059 0.106 1.378 0.072 0.322 0.194 0.566 0.362 0.731 0.169 0.169 0.444 0.359 0.828 0.581s0.863 0.428 1.434 0.628c0.572 0.197 1.234 0.369 1.981 0.513 0.747 0.141 1.559 0.209 2.431 0.209 0.038 0 0.072-0.006 0.113-0.006v3.009h3.072v-3.412c0.147-0.037 0.303-0.056 0.447-0.097 1.131-0.338 2.122-0.844 2.969-1.512s1.516-1.503 2.013-2.506c0.494-1.003 0.738-2.166 0.738-3.494 0.003-1.009-0.153-1.887-0.462-2.638zM48.662 75h40.4c1.728 0 3.125 1.397 3.125 3.125 0 1.725-1.397 3.125-3.125 3.125h-47.803c2.863-1.584 5.372-3.716 7.403-6.25z"></path>
</svg>
