<!-- Generated by IcoMoon.io -->
<svg version="1.1" xmlns="http://www.w3.org/2000/svg" width="100" height="100" viewBox="0 0 100 100">
<title>gears</title>
<path fill="#f7f7f7" d="M35.52 70.513l4.033-5.646-4.419-4.42-5.646 4.033c-1.047-0.585-2.168-1.052-3.346-1.386l-1.141-6.844h-6.25l-1.141 6.844c-1.178 0.334-2.299 0.801-3.346 1.386l-5.646-4.033-4.42 4.42 4.033 5.646c-0.585 1.047-1.052 2.169-1.386 3.346l-6.844 1.141v6.25l6.844 1.141c0.334 1.178 0.801 2.299 1.386 3.346l-4.033 5.646 4.419 4.42 5.646-4.033c1.047 0.585 2.168 1.052 3.346 1.386l1.141 6.844h6.25l1.141-6.844c1.178-0.334 2.299-0.801 3.346-1.386l5.646 4.033 4.419-4.42-4.033-5.646c0.585-1.047 1.052-2.169 1.386-3.346l6.845-1.141v-6.25l-6.844-1.141c-0.334-1.178-0.801-2.299-1.386-3.346zM21.875 84.375c-3.452 0-6.25-2.798-6.25-6.25s2.798-6.25 6.25-6.25 6.25 2.798 6.25 6.25-2.798 6.25-6.25 6.25zM100 37.5v-6.25l-6.58-1.196c-0.121-0.786-0.277-1.56-0.461-2.323l5.621-3.623-2.392-5.774-6.537 1.413c-0.412-0.675-0.852-1.33-1.318-1.966l3.809-5.502-4.42-4.419-5.502 3.809c-0.636-0.465-1.291-0.906-1.966-1.318l1.413-6.538-5.774-2.392-3.623 5.621c-0.763-0.185-1.538-0.34-2.323-0.461l-1.196-6.58h-6.25l-1.196 6.58c-0.786 0.121-1.56 0.277-2.323 0.461l-3.623-5.621-5.774 2.392 1.413 6.537c-0.675 0.412-1.33 0.852-1.966 1.318l-5.502-3.809-4.419 4.419 3.809 5.502c-0.465 0.636-0.906 1.291-1.318 1.966l-6.538-1.413-2.392 5.774 5.621 3.623c-0.185 0.763-0.34 1.537-0.461 2.323l-6.58 1.196v6.25l6.58 1.196c0.121 0.786 0.277 1.56 0.461 2.323l-5.621 3.623 2.392 5.774 6.538-1.413c0.412 0.675 0.852 1.33 1.318 1.966l-3.809 5.502 4.419 4.42 5.502-3.809c0.636 0.465 1.291 0.906 1.966 1.318l-1.413 6.537 5.774 2.392 3.623-5.621c0.763 0.185 1.537 0.34 2.323 0.461l1.196 6.58h6.25l1.196-6.58c0.786-0.121 1.56-0.277 2.323-0.461l3.623 5.621 5.774-2.392-1.413-6.537c0.675-0.412 1.33-0.852 1.966-1.318l5.502 3.809 4.42-4.42-3.809-5.502c0.465-0.636 0.906-1.291 1.318-1.966l6.537 1.413 2.392-5.774-5.621-3.623c0.185-0.763 0.34-1.537 0.461-2.323l6.58-1.196zM65.625 47.969c-7.508 0-13.594-6.086-13.594-13.594s6.086-13.594 13.594-13.594 13.594 6.086 13.594 13.594c0 7.508-6.086 13.594-13.594 13.594z"></path>
</svg>
