<!-- Generated by IcoMoon.io -->
<svg version="1.1" xmlns="http://www.w3.org/2000/svg" width="100" height="100" viewBox="0 0 100 100">
<title>github</title>
<path fill="#f7f7f7" d="M50.001 1.235c-27.611 0-50.001 22.385-50.001 50 0 22.091 14.327 40.833 34.193 47.445 2.499 0.463 3.417-1.085 3.417-2.405 0-1.192-0.047-5.131-0.068-9.309-13.911 3.025-16.846-5.899-16.846-5.899-2.274-5.779-5.552-7.316-5.552-7.316-4.536-3.103 0.343-3.039 0.343-3.039 5.020 0.353 7.664 5.153 7.664 5.153 4.46 7.644 11.697 5.434 14.551 4.156 0.448-3.231 1.743-5.437 3.174-6.686-11.106-1.264-22.781-5.552-22.781-24.71 0-5.459 1.954-9.919 5.152-13.421-0.519-1.26-2.232-6.345 0.484-13.232 0 0 4.2-1.343 13.754 5.126 3.988-1.108 8.265-1.664 12.515-1.683 4.248 0.019 8.529 0.575 12.525 1.683 9.544-6.469 13.736-5.126 13.736-5.126 2.722 6.887 1.011 11.973 0.492 13.232 3.205 3.502 5.146 7.962 5.146 13.421 0 19.204-11.697 23.433-22.831 24.67 1.793 1.552 3.391 4.594 3.391 9.259 0 6.69-0.058 12.075-0.058 13.721 0 1.331 0.901 2.89 3.435 2.399 19.856-6.619 34.164-25.354 34.164-47.438 0-27.615-22.386-50-49.999-50z"></path>
</svg>
