<!-- Generated by IcoMoon.io -->
<svg version="1.1" xmlns="http://www.w3.org/2000/svg" width="100" height="100" viewBox="0 0 100 100">
<title>linkedin</title>
<path fill="#f7f7f7" d="M90.625 0h-81.25c-5.156 0-9.375 4.219-9.375 9.375v81.25c0 5.156 4.219 9.375 9.375 9.375h81.25c5.156 0 9.375-4.219 9.375-9.375v-81.25c0-5.156-4.219-9.375-9.375-9.375zM37.5 81.25h-12.5v-43.75h12.5v43.75zM31.25 31.25c-3.457 0-6.25-2.793-6.25-6.25s2.793-6.25 6.25-6.25c3.457 0 6.25 2.793 6.25 6.25s-2.793 6.25-6.25 6.25zM81.25 81.25h-12.5v-25c0-3.457-2.793-6.25-6.25-6.25s-6.25 2.793-6.25 6.25v25h-12.5v-43.75h12.5v7.754c2.578-3.535 6.523-7.754 10.938-7.754 7.773 0 14.063 6.992 14.063 15.625v28.125z"></path>
</svg>
