<!-- Generated by IcoMoon.io -->
<svg version="1.1" xmlns="http://www.w3.org/2000/svg" width="100" height="100" viewBox="0 0 100 100">
<title>loop</title>
<path fill="#f7f7f7" d="M86.883 16.242c-9.141-9.982-22.281-16.242-36.883-16.242-27.614 0-50 22.386-50 50h9.375c0-22.437 18.188-40.625 40.625-40.625 12.014 0 22.807 5.217 30.244 13.506l-14.619 14.619h34.375v-34.375l-13.117 13.117z"></path>
<path fill="#f7f7f7" d="M90.625 50c0 22.437-18.188 40.625-40.625 40.625-12.014 0-22.807-5.217-30.244-13.506l14.619-14.619h-34.375v34.375l13.117-13.117c9.141 9.982 22.281 16.242 36.883 16.242 27.614 0 50-22.386 50-50h-9.375z"></path>
</svg>
