<!-- Generated by IcoMoon.io -->
<svg version="1.1" xmlns="http://www.w3.org/2000/svg" width="100" height="100" viewBox="0 0 100 100">
<title>mail</title>
<path fill="#f7f7f7" d="M100 39.621v44.308c0 4.911-4.018 8.929-8.929 8.929h-82.143c-4.911 0-8.929-4.018-8.929-8.929v-44.308c1.674 1.842 3.571 3.46 5.636 4.855 9.263 6.306 18.638 12.612 27.734 19.252 4.688 3.46 10.491 7.701 16.574 7.701h0.112c6.083 0 11.886-4.241 16.574-7.701 9.096-6.585 18.471-12.946 27.79-19.252 2.009-1.395 3.906-3.013 5.58-4.855zM100 23.214c0 6.25-4.632 11.886-9.542 15.29-8.705 6.027-17.467 12.054-26.116 18.136-3.627 2.511-9.766 7.645-14.286 7.645h-0.112c-4.52 0-10.658-5.134-14.286-7.645-8.65-6.083-17.411-12.109-26.060-18.136-3.962-2.679-9.598-8.984-9.598-14.062 0-5.469 2.958-10.156 8.929-10.156h82.143c4.855 0 8.929 4.018 8.929 8.929z"></path>
</svg>
