<!-- Generated by IcoMoon.io -->
<svg version="1.1" xmlns="http://www.w3.org/2000/svg" width="82" height="100" viewBox="0 0 82 100">
<title>moon</title>
<path fill="#f7f7f7" d="M70.424 72.712c-2.009 0.335-4.074 0.502-6.138 0.502-20.703 0-37.5-16.797-37.5-37.5 0-7.087 2.065-14.007 5.804-19.922-14.844 4.408-25.446 18.025-25.446 34.208 0 19.699 16.016 35.714 35.714 35.714 10.77 0 20.871-4.911 27.567-13.002zM81.752 67.969c-6.975 15.123-22.266 24.888-38.895 24.888-23.605 0-42.857-19.252-42.857-42.857 0-23.158 18.136-41.964 41.239-42.801 1.563-0.056 2.846 0.837 3.404 2.176 0.614 1.395 0.223 3.013-0.837 4.018-6.362 5.804-9.877 13.728-9.877 22.321 0 16.741 13.616 30.357 30.357 30.357 4.408 0 8.65-0.949 12.723-2.846 1.395-0.614 2.958-0.335 4.018 0.725s1.339 2.679 0.725 4.018z"></path>
</svg>
