<!-- Generated by IcoMoon.io -->
<svg version="1.1" xmlns="http://www.w3.org/2000/svg" width="100" height="100" viewBox="0 0 100 100">
<title>new</title>
<path fill="#f7f7f7" d="M78.125 32.227q5.273 8.008 5.273 17.773 0 13.672-9.863 23.535t-23.535 9.863v12.5l-16.602-16.797 16.602-16.602v12.5q10.352 0 17.676-7.324t7.324-17.676q0-5.859-2.93-11.719zM50 25q-10.352 0-17.676 7.324t-7.324 17.676q0 6.25 2.93 11.719l-6.055 6.055q-5.273-8.008-5.273-17.773 0-13.672 9.863-23.535t23.535-9.863v-12.5l16.602 16.797-16.602 16.602v-12.5z"></path>
</svg>
