<!-- Generated by IcoMoon.io -->
<svg version="1.1" xmlns="http://www.w3.org/2000/svg" width="100" height="100" viewBox="0 0 100 100">
<title>stopwatch</title>
<path fill="#f7f7f7" d="M50 18.868v-6.368h12.5v-6.25c0-3.452-2.798-6.25-6.25-6.25h-18.75c-3.452 0-6.25 2.798-6.25 6.25v6.25h12.5v6.368c-20.976 1.596-37.5 19.121-37.5 40.507 0 22.437 18.188 40.625 40.625 40.625s40.625-18.188 40.625-40.625c0-21.385-16.524-38.911-37.5-40.507zM68.972 81.472c-5.903 5.902-13.75 9.153-22.097 9.153s-16.195-3.251-22.097-9.153c-5.902-5.902-9.153-13.75-9.153-22.097s3.251-16.195 9.153-22.097c5.668-5.668 13.13-8.888 21.105-9.136l-2.117 30.666c-0.182 2.567 1.217 3.692 3.109 3.692s3.291-1.124 3.109-3.692l-2.117-30.666c7.975 0.247 15.437 3.468 21.105 9.136 5.902 5.902 9.153 13.75 9.153 22.097s-3.251 16.195-9.153 22.097z"></path>
</svg>
