<!-- Generated by IcoMoon.io -->
<svg version="1.1" xmlns="http://www.w3.org/2000/svg" width="100" height="100" viewBox="0 0 100 100">
<title>sun</title>
<path fill="#f7f7f7" d="M82.143 50c0-17.746-14.397-32.143-32.143-32.143s-32.143 14.397-32.143 32.143 14.397 32.143 32.143 32.143 32.143-14.397 32.143-32.143zM97.545 65.458c-0.167 0.558-0.614 0.949-1.116 1.116l-16.295 5.357v17.076c0 0.558-0.279 1.116-0.725 1.451-0.502 0.335-1.060 0.446-1.618 0.223l-16.295-5.246-10.045 13.839c-0.335 0.446-0.893 0.725-1.451 0.725s-1.116-0.279-1.451-0.725l-10.045-13.839-16.295 5.246c-0.558 0.223-1.116 0.112-1.618-0.223-0.446-0.335-0.725-0.893-0.725-1.451v-17.076l-16.295-5.357c-0.502-0.167-0.949-0.558-1.116-1.116s-0.112-1.172 0.223-1.618l10.045-13.839-10.045-13.839c-0.335-0.502-0.391-1.060-0.223-1.618s0.614-0.949 1.116-1.116l16.295-5.357v-17.076c0-0.558 0.279-1.116 0.725-1.451 0.502-0.335 1.060-0.446 1.618-0.223l16.295 5.246 10.045-13.839c0.67-0.893 2.232-0.893 2.902 0l10.045 13.839 16.295-5.246c0.558-0.223 1.116-0.112 1.618 0.223 0.446 0.335 0.725 0.893 0.725 1.451v17.076l16.295 5.357c0.502 0.167 0.949 0.558 1.116 1.116s0.112 1.116-0.223 1.618l-10.045 13.839 10.045 13.839c0.335 0.446 0.391 1.060 0.223 1.618z"></path>
</svg>
